<?xml version="1.0" encoding="UTF-8"?>
<svg id="Layer_1" data-name="Layer 1" xmlns="http://www.w3.org/2000/svg" xmlns:xlink="http://www.w3.org/1999/xlink" viewBox="0 0 603.03 647.75">
  <defs>
    <style>
      .cls-1 {
        fill: url(#radial-gradient);
      }

      .cls-2 {
        fill: url(#radial-gradient-2);
      }
    </style>
    <radialGradient id="radial-gradient" cx="301.51" cy="525.9" fx="301.51" fy="525.9" r="229.95" gradientUnits="userSpaceOnUse">
      <stop offset=".2" stop-color="#f9b110"/>
      <stop offset=".66" stop-color="#80499b"/>
      <stop offset="1" stop-color="#e72e68"/>
    </radialGradient>
    <radialGradient id="radial-gradient-2" cx="301.93" cy="209.01" fx="301.93" fy="209.01" r="195.53" gradientUnits="userSpaceOnUse">
      <stop offset=".36" stop-color="#f9b110"/>
      <stop offset=".69" stop-color="#80499b"/>
      <stop offset="1" stop-color="#e72e68"/>
    </radialGradient>
  </defs>
  <path class="cls-1" d="m463.63,647.75c-2.87,0-4.61,0-10.55-.56-13.62-.72-26.51-3.95-39.38-7.6-14.91-4.23-28.99-10.56-42.84-17.37-5.46-2.69-10.59-6.07-15.86-9.15-.38-.22-.77-.49-1.08-.8-.56-.58-1.32-1.29-.84-2.08.51-.85,1.43-.3,2.19-.08,10.91,3.23,21.85,6.39,32.9,9.13,17.29,4.29,34.78,8.06,52.65,7.02,44.91-2.61,79.15-22.83,100.45-63.2,6.03-11.43,9.02-23.91,9.83-36.71.69-10.94-2.29-21.45-7.25-31.15-11.92-23.29-31.27-37.37-56.13-44.44-14.2-4.03-28.69-5.14-43.22-3.46-17.13,1.98-32.42,8.69-45.75,19.89-27.2,22.87-52.84,47.45-78.83,71.65-8.95,8.33-17.52,17.12-26.76,25.07-17.16,14.77-34.14,29.82-52.47,43.15-13.36,9.71-26.43,19.89-41.4,27.15-11.64,5.64-23.98,9.34-36.65,11.25-8.27,1.24-16.6,1.99-25.04,1.84-9.23-.16-18.72-1.26-27.9-3.04-26.43-5.12-50.06-16.23-70.11-34.07-20.62-18.34-33.92-41.2-38.28-68.79-4.69-29.62,3.49-56.02,21.38-79.36,22.94-29.94,53.52-47.88,90.54-54.66,10.32-1.89,20.82-2.93,31.31-3.16,20.01-.44,39.17,3.95,57.73,11.25,11.55,4.55,22.53,10.25,33.29,16.41.39.22.81.41,1.16.69.83.67,1.99,1.38,1.49,2.58-.52,1.24-1.7.47-2.6.29-14.69-2.89-29.31-6.21-44.18-8.04-17.88-2.2-35.78-3.03-53.62.76-13.41,2.85-25.13,9.28-36.66,16.35-18.3,11.21-31.65,26.79-40.36,46.17-6.34,14.09-9.4,29.11-7.45,44.66,1.81,14.49,8.77,26.58,18.49,37.29,16.75,18.45,37.88,27.94,62.28,30.74,18.74,2.15,36.71-.52,53.55-9.33,9.94-5.2,18.43-12.49,27.15-19.42,26.78-21.27,51.64-44.71,76.71-67.93,28.24-26.15,56.72-51.99,87.83-74.79,17.18-12.59,35.84-21.43,56.75-25.35,16.1-3.01,32.25-3.28,48.52-.99,21.25,2.99,41.18,9.65,59.54,20.76,22.3,13.49,39.83,31.42,50.53,55.54,3.73,8.4,6.84,17.05,7.97,26.17.74,5.94.02,12.04.31,18.06.48,9.84-1.23,19.28-4.2,28.61-4.14,12.99-10.62,24.7-18.7,35.58-2.73,3.68-5.43,7.44-8.61,10.71-12.32,12.67-26.63,22.61-42.37,30.61-14,7.12-28.95,11.21-44.26,13.82-7.54,1.28-10.47,1.77-21.18,2.33Z"/>
  <path class="cls-2" d="m316.96,0c37.03.17,71.43,11.93,101.56,35.27,33.68,26.09,54.27,60.47,62.07,102.46,2.95,15.9,3.27,31.85.41,47.73-4.63,25.7-15.48,48.55-33.13,67.85-19.92,21.79-44.35,35.7-73.41,41.72-46.93,9.73-96.17-12.91-117.4-57.05-7.32-15.23-11.47-31.37-9.76-48.28,2.95-29.26,17.18-51.33,43.77-64.8,1.84-.93,3.75-1.71,5.67-2.48.61-.24,1.47-.62,1.87.3.32.74-.11,1.43-.69,1.9-.63.5-1.35.89-2.02,1.34-15.95,10.98-26.95,25.44-31.04,44.65-5.01,23.47.94,44.43,15.46,62.98,15.18,19.4,35.3,30.07,59.94,31.82,15.56,1.11,30.14-2.85,43.86-9.77,27.81-14.03,45.98-36.18,53.08-66.63,6.02-25.82,1.53-50.56-10.5-73.9-14.38-27.9-36.6-47.49-65.38-59.5-16.17-6.75-33.27-9.61-50.78-8.91-21.92.88-42.57,6.83-62.16,16.66-27.52,13.8-49.37,33.85-65.66,59.93-12.46,19.95-20.89,41.54-24,64.92-1.75,13.18-2.21,26.44-.93,39.81,3.63,37.8,16.59,72.06,38,103.22,8.01,11.65,17.44,22.14,27.26,32.33,21.37,22.16,46.88,38.07,74.73,50.58,1.3.58,2.69.99,3.98,1.6.63.3,1.32.9,1.06,1.69-.32.95-1.21.51-1.86.38-15.1-2.99-29.64-7.77-43.71-13.96-19.61-8.62-37.73-19.73-54.1-33.53-22.5-18.98-40.66-41.61-54.71-67.49-12.39-22.83-20.66-47.09-24.87-72.75-6.86-41.85-.41-81.74,18.81-119.27C172.01,52.92,219.19,17.43,282.61,3.45c5.44-1.2,10.96-1.85,16.46-2.65,5.53-.8,11.11-.63,17.89-.8Z"/>
</svg>